<svg enable-background="new 0 0 59.7895 60" viewBox="0 0 59.7895 60" xmlns="http://www.w3.org/2000/svg"><path d="m51.4565 8.333c1.6651-1.6655 1.6651-4.3647 0-6.0303-1.664-1.665-4.3662-1.667-6.0293-.0019-.875.8725-1.2754 2.0293-1.2353 3.1743l-.0117-.0073.0019 10.1386 10.1436.0044c-.002-.0044-.0049-.0063-.0049-.0102 1.1445.039 2.2949-.3652 3.167-1.2388 1.666-1.6645 1.666-4.3618 0-6.0288-1.6651-1.6636-4.3662-1.6655-6.0313 0z" fill="#f16061"/><g fill="#393939"><path d="m9.6411 59.1768c-.561 0-1.0278-.4444-1.0503-1.0108l-.2583-6.4023-6.998.2588c-.5694.039-1.0704-.4317-1.0909-1.0118-.0215-.581.4317-1.0693 1.0127-1.0908l8.0469-.2988c.5757-.0322 1.0679.4297 1.0908 1.0098l.2998 7.4511c.024.5801-.4287 1.0694-1.0092 1.0938-.0147.001-.0289.001-.0435.001z"/><path d="m14.4077 54.4072c-.561 0-1.0278-.4433-1.0503-1.0097l-.2559-6.4014-6.9985.2578c-.5693.0381-1.0688-.4316-1.0903-1.0127-.022-.5801.4316-1.0683 1.0122-1.0898l8.0469-.2979c.5737-.0351 1.0683.4297 1.0908 1.0098l.2978 7.4492c.024.5811-.4287 1.0713-1.0092 1.0937-.0142.001-.0289.001-.0435.001z"/><path d="m6.4404 54.627c-.2695 0-.5386-.1036-.7441-.3086-.4117-.4112-.4117-1.0772 0-1.4883l38.4575-38.4571c.4111-.4111 1.0771-.4111 1.4883 0 .4111.4112.4111 1.0772 0 1.4883l-38.4575 38.4571c-.2056.205-.4751.3086-.7442.3086z"/><path d="m38.2358 53.1807c-.2695 0-.5381-.1036-.7441-.3086l-30.3462-30.3496c-.4111-.4112-.4111-1.0772 0-1.4883 4.2515-4.2525 9.9043-6.5952 15.917-6.5952 6.0122 0 11.6655 2.3427 15.9175 6.5952 4.2539 4.2514 6.5957 9.9043 6.5957 15.9179 0 6.0137-2.3418 11.667-6.5957 15.92-.2051.205-.4746.3086-.7442.3086zm-28.8393-31.3838 28.8208 28.8242c3.3955-3.7568 5.2529-8.5703 5.2529-13.669 0-5.4501-2.1231-10.5756-5.9785-14.4296-3.8545-3.8545-8.979-5.9786-14.4292-5.9786-5.0977 0-9.9107 1.8589-13.666 5.253z"/><path d="m4.1787 25.3765c-2.3047-.0015-4.1787-1.8775-4.1787-4.1807 0-2.3037 1.874-4.1787 4.1777-4.1787.582 0 1.0527.4707 1.0527 1.0522 0 .5821-.4707 1.0528-1.0527 1.0528-1.1431 0-2.0723.9306-2.0723 2.0737 0 1.144.9302 2.0742 2.0733 2.0752.5757-.001 1.1142-.2383 1.5132-.6694.039-.0411.081-.0791.1255-.1138l1.3906-1.3911c.4111-.4112 1.0776-.4112 1.4888 0 .4111.4111.4111 1.0776 0 1.4887l-1.4864 1.4864c-.0258.0259-.0537.0503-.0815.0727-.7905.795-1.8316 1.2305-2.9502 1.232z"/><path d="m38.9018 60c-2.2509 0-4.0839-1.873-4.0869-4.1758.001-1.1123.4239-2.1484 1.1914-2.9375.0225-.0293.0459-.0566.0723-.084l1.4414-1.4863c.4053-.417 1.0713-.4277 1.4893-.0225.417.4053.4267 1.0713.0224 1.4883l-1.3486 1.3897c-.0332.0449-.0703.0869-.1113.126-.419.4003-.6504.9433-.6514 1.5263.001 1.1406.8896 2.0703 1.9814 2.0703 1.0899 0 1.9766-.9297 1.9766-2.0713 0-.582.4707-1.0527 1.0527-1.0527.5821 0 1.0528.4707 1.0528 1.0527 0 2.3028-1.8311 4.1768-4.0821 4.1768z"/><path d="m54.3257 16.6631-10.1436-.0039c-.581 0-1.0517-.4707-1.0517-1.0528l-.003-10.1386c0-.0449.0039-.0894.0088-.1333-.0049-1.4385.541-2.7744 1.5479-3.7788 1.0009-1.0025 2.3359-1.5557 3.7548-1.5557 1.4219 0 2.7579.5532 3.7618 1.5586 1.2324 1.2324 1.7324 2.9233 1.5 4.5283 1.6289-.2305 3.3418.3135 4.5312 1.5015 1.0049 1.0053 1.5576 2.3408 1.5576 3.7602 0 1.42-.5537 2.7539-1.5576 3.7583-.9961.9981-2.333 1.5493-3.7598 1.5493l-.0175-.0009c-.043.0049-.086.0078-.1289.0078zm-9.0909-2.1094 8.9405.0044c.0605-.0093.1191-.0142.1816-.0093l.1152.002c.8643 0 1.6709-.3321 2.2696-.9321.6094-.6075.9433-1.4136.9433-2.2701 0-.8569-.3349-1.664-.9423-2.2715-1.2129-1.2109-3.3291-1.2128-4.542 0-.4112.4112-1.0772.4112-1.4883 0-.2061-.2055-.3086-.475-.3086-.7441 0-.2695.1025-.5391.3086-.7446 1.2519-1.252 1.2519-3.2891 0-4.5415-1.2139-1.2139-3.3301-1.2158-4.5401-.002-.6308.6294-.9609 1.4795-.9287 2.3931.003.0649-.0009.1284-.0107.1914z"/></g></svg>